<svg width="50" height="20" viewBox="0 0 50 20" fill="none" xmlns="http://www.w3.org/2000/svg">
<path d="M1.06647 3.77712H6.36248V4.60878H1.06647V7.50803H7.10174V8.33969H0V0.254118H6.93207V1.08578H1.06647V3.77712Z" fill="#4D66EC"/>
<path d="M9.57582 1.08578V7.50803H11.3815C11.8502 7.50803 12.242 7.49648 12.5571 7.47338C12.8803 7.44257 13.2438 7.36172 13.6478 7.23081C14.0518 7.0922 14.3911 6.89969 14.6658 6.65327C15.2718 6.09883 15.5747 5.31337 15.5747 4.2969C15.5747 3.28813 15.2718 2.50653 14.6658 1.95209C14.278 1.59786 13.8255 1.36685 13.3085 1.25904C12.7995 1.14353 12.1693 1.08578 11.4179 1.08578H9.57582ZM8.50934 0.254118H11.7572C12.5813 0.254118 13.3085 0.327273 13.9387 0.473583C14.5688 0.619894 15.1223 0.920215 15.599 1.37455C16.3342 2.1061 16.7018 3.06482 16.7018 4.2507C16.7018 5.52129 16.3301 6.51081 15.5868 7.21926C15.094 7.68899 14.4961 7.99316 13.7932 8.13177C13.0984 8.27038 12.2582 8.33969 11.2725 8.33969H8.50934V0.254118Z" fill="#4D66EC"/>
<path d="M18.4626 0.254118H19.529V8.33969H18.4626V0.254118Z" fill="#4D66EC"/>
<path d="M21.2919 5.78696H22.3947V5.83316C22.3947 6.55701 22.6977 7.07295 23.3036 7.38097C23.7641 7.61199 24.4347 7.7275 25.3154 7.7275C26.1799 7.7275 26.7858 7.63894 27.1332 7.46183C27.7069 7.19231 27.9937 6.75338 27.9937 6.14503C27.9937 5.683 27.7836 5.32493 27.3635 5.07081C27.1211 4.9245 26.6444 4.78589 25.9334 4.65498C25.8769 4.64728 25.8325 4.63958 25.8001 4.63188L24.5882 4.42396C24.564 4.41626 24.4751 4.40086 24.3216 4.37776C24.1681 4.35466 24.0712 4.33926 24.0308 4.33156C23.9904 4.32385 23.8975 4.30845 23.752 4.28535C23.6147 4.25455 23.5177 4.2353 23.4612 4.2276C23.4127 4.2122 23.3238 4.19295 23.1946 4.16984C23.0734 4.13904 22.9804 4.11209 22.9158 4.08899C22.8593 4.06589 22.7785 4.03893 22.6734 4.00813C22.5765 3.97733 22.4957 3.94653 22.4311 3.91573C22.3745 3.87722 22.3099 3.83872 22.2372 3.80022C22.1644 3.76172 22.0998 3.71936 22.0432 3.67316C21.6393 3.35744 21.4373 2.92621 21.4373 2.37947C21.4373 1.54781 21.8049 0.920215 22.5401 0.496685C23.1218 0.165562 23.95 0 25.0245 0C26.1637 0 27.0403 0.161712 27.6543 0.485135C28.4057 0.870162 28.7814 1.49005 28.7814 2.34482H27.7028C27.7028 1.80578 27.4483 1.40535 26.9393 1.14353C26.5354 0.920215 25.9092 0.808558 25.0609 0.808558C24.2772 0.808558 23.6995 0.904814 23.3279 1.09733C23.0693 1.22824 22.8673 1.4015 22.7219 1.61711C22.5846 1.83273 22.5159 2.06375 22.5159 2.31016C22.5159 2.73369 22.73 3.04942 23.1582 3.25733C23.4652 3.41904 24.0792 3.5692 25.0003 3.70781L26.2243 3.90418C27.21 4.06589 27.9008 4.2815 28.2967 4.55102C28.8218 4.90525 29.0844 5.42888 29.0844 6.12193C29.0844 7.0383 28.6643 7.70439 27.824 8.12022C27.2585 8.39744 26.4303 8.53605 25.3396 8.53605C24.2489 8.53605 23.4167 8.42439 22.8431 8.20108C21.8089 7.78525 21.2919 7.00364 21.2919 5.85626V5.78696Z" fill="#4D66EC"/>
<path d="M38.8768 1.20129C39.709 1.99444 40.1251 3.02631 40.1251 4.2969C40.1251 5.56749 39.709 6.59937 38.8768 7.39252C38.0447 8.18568 36.861 8.58226 35.326 8.58226C33.7909 8.58226 32.6073 8.18568 31.7751 7.39252C30.9429 6.59937 30.5268 5.56749 30.5268 4.2969C30.5268 3.02631 30.9429 1.99444 31.7751 1.20129C32.6396 0.408129 33.8232 0.0115514 35.326 0.0115514C36.8287 0.0115514 38.0123 0.408129 38.8768 1.20129ZM37.9437 1.68642C37.3135 1.10888 36.4409 0.820108 35.326 0.820108C34.211 0.820108 33.3384 1.10888 32.7083 1.68642C32.0134 2.30246 31.666 3.17262 31.666 4.2969C31.666 5.42118 32.0134 6.29134 32.7083 6.90739C33.3384 7.48493 34.211 7.7737 35.326 7.7737C36.4409 7.7737 37.3135 7.48493 37.9437 6.90739C38.6385 6.29134 38.9859 5.42118 38.9859 4.2969C38.9859 3.17262 38.6385 2.30246 37.9437 1.68642Z" fill="#4D66EC"/>
<path d="M50 0.254118V8.33969H48.8366L43.1043 1.50161V8.33969H42.0378V0.254118H43.2134L48.9335 7.0922V0.254118H50Z" fill="#4D66EC"/>
<path d="M0.245367 17.3283H1.31713V17.3732C1.31713 18.0767 1.61157 18.5781 2.20045 18.8775C2.648 19.102 3.2997 19.2142 4.15554 19.2142C4.99568 19.2142 5.58456 19.1282 5.92218 18.956C6.47966 18.6941 6.7584 18.2675 6.7584 17.6763C6.7584 17.2273 6.55425 16.8793 6.14596 16.6324C5.91041 16.4902 5.44715 16.3555 4.7562 16.2283C4.70124 16.2208 4.65805 16.2133 4.62665 16.2058L3.44888 16.0037C3.42533 15.9963 3.33896 15.9813 3.18977 15.9588C3.04059 15.9364 2.94637 15.9214 2.90711 15.9139C2.86785 15.9065 2.77756 15.8915 2.63623 15.869C2.50275 15.8391 2.40852 15.8204 2.35356 15.8129C2.30645 15.7979 2.22008 15.7792 2.09445 15.7568C1.97668 15.7269 1.88638 15.7007 1.82357 15.6782C1.76861 15.6558 1.69009 15.6296 1.58802 15.5996C1.4938 15.5697 1.41528 15.5398 1.35246 15.5098C1.2975 15.4724 1.23469 15.435 1.16402 15.3976C1.09336 15.3602 1.03054 15.319 0.97558 15.2741C0.582993 14.9673 0.386699 14.5482 0.386699 14.0168C0.386699 13.2086 0.743953 12.5987 1.45846 12.1871C2.02379 11.8653 2.82859 11.7044 3.87288 11.7044C4.97997 11.7044 5.83189 11.8616 6.42862 12.1759C7.15884 12.55 7.52394 13.1525 7.52394 13.9832H6.47573C6.47573 13.4593 6.2284 13.0702 5.73374 12.8157C5.34115 12.5987 4.73264 12.4902 3.90821 12.4902C3.14659 12.4902 2.58519 12.5837 2.22401 12.7708C1.97275 12.898 1.77646 13.0664 1.63513 13.276C1.50165 13.4855 1.43491 13.71 1.43491 13.9495C1.43491 14.3611 1.64298 14.6679 2.05912 14.87C2.35749 15.0271 2.95422 15.1731 3.84932 15.3078L5.03886 15.4986C5.99678 15.6558 6.6681 15.8653 7.05284 16.1272C7.5632 16.4715 7.81838 16.9804 7.81838 17.6539C7.81838 18.5444 7.41009 19.1918 6.59351 19.5959C6.04389 19.8653 5.23908 20 4.1791 20C3.11911 20 2.31038 19.8915 1.7529 19.6745C0.747879 19.2703 0.245367 18.5108 0.245367 17.3957V17.3283Z" fill="#4D66EC"/>
<path d="M10.5628 16.0599V19.8092H9.52641V11.9514H10.5628V15.2516H15.9099V11.9514H16.9463V19.8092H15.9099V16.0599H10.5628Z" fill="#4D66EC"/>
<path d="M35.6018 15.3751H40.7486V16.1833H35.6018V19.0009H41.4671V19.8092H34.5654V11.9514H41.3022V12.7596H35.6018V15.3751Z" fill="#4D66EC"/>
<path d="M42.3757 17.3283H43.4475V17.3732C43.4475 18.0767 43.7419 18.5781 44.3308 18.8775C44.7783 19.102 45.43 19.2142 46.2859 19.2142C47.126 19.2142 47.7149 19.1282 48.0525 18.956C48.61 18.6941 48.8887 18.2675 48.8887 17.6763C48.8887 17.2273 48.6846 16.8793 48.2763 16.6324C48.0407 16.4902 47.5775 16.3555 46.8865 16.2283C46.8316 16.2208 46.7884 16.2133 46.757 16.2058L45.5792 16.0037C45.5556 15.9963 45.4693 15.9813 45.3201 15.9588C45.1709 15.9364 45.0767 15.9214 45.0374 15.9139C44.9982 15.9065 44.9079 15.8915 44.7665 15.869C44.6331 15.8391 44.5388 15.8204 44.4839 15.8129C44.4368 15.7979 44.3504 15.7792 44.2248 15.7568C44.107 15.7269 44.0167 15.7007 43.9539 15.6782C43.8989 15.6558 43.8204 15.6296 43.7183 15.5996C43.6241 15.5697 43.5456 15.5398 43.4828 15.5098C43.4278 15.4724 43.365 15.435 43.2943 15.3976C43.2237 15.3602 43.1609 15.319 43.1059 15.2741C42.7133 14.9673 42.517 14.5482 42.517 14.0168C42.517 13.2086 42.8743 12.5987 43.5888 12.1871C44.1541 11.8653 44.9589 11.7044 46.0032 11.7044C47.1103 11.7044 47.9622 11.8616 48.5589 12.1759C49.2892 12.55 49.6543 13.1525 49.6543 13.9832H48.6061C48.6061 13.4593 48.3587 13.0702 47.8641 12.8157C47.4715 12.5987 46.863 12.4902 46.0385 12.4902C45.2769 12.4902 44.7155 12.5837 44.3543 12.7708C44.1031 12.898 43.9068 13.0664 43.7655 13.276C43.632 13.4855 43.5652 13.71 43.5652 13.9495C43.5652 14.3611 43.7733 14.6679 44.1894 14.87C44.4878 15.0271 45.0845 15.1731 45.9796 15.3078L47.1692 15.4986C48.1271 15.6558 48.7984 15.8653 49.1832 16.1272C49.6935 16.4715 49.9487 16.9804 49.9487 17.6539C49.9487 18.5444 49.5404 19.1918 48.7238 19.5959C48.1742 19.8653 47.3694 20 46.3094 20C45.2494 20 44.4407 19.8915 43.8832 19.6745C42.8782 19.2703 42.3757 18.5108 42.3757 17.3957V17.3283Z" fill="#4D66EC"/>
<path d="M32.7457 15.5996C32.7457 18.6782 28.9828 19.8092 25.7528 19.8092C22.5228 19.8092 18.7598 18.6782 18.7598 15.5996C18.7598 12.5211 22.5228 11.3901 25.7528 11.3901C28.9828 11.3901 32.7457 12.5211 32.7457 15.5996ZM31.8219 15.5996C31.8219 12.9763 28.5052 12.1843 25.7528 12.1843C23.0004 12.1843 19.6836 12.9763 19.6836 15.5996C19.6836 18.223 23.0004 19.0149 25.7528 19.0149C28.5052 19.0149 31.8219 18.223 31.8219 15.5996Z" fill="#4D66EC"/>
</svg>
